<svg xmlns="http://www.w3.org/2000/svg" viewBox="0 0 32 32">
  <!-- Background with gradient -->
  <defs>
    <linearGradient id="bgGradient" x1="0%" y1="0%" x2="100%" y2="100%">
      <stop offset="0%" stop-color="#3b82f6" />
      <stop offset="100%" stop-color="#1e40af" />
    </linearGradient>
    <filter id="glow" x="-20%" y="-20%" width="140%" height="140%">
      <feGaussianBlur stdDeviation="1" result="blur" />
      <feComposite in="SourceGraphic" in2="blur" operator="over" />
    </filter>
  </defs>
  
  <!-- Hexagonal background -->
  <path d="M16 2L28.5 9V23L16 30L3.5 23V9L16 2Z" fill="url(#bgGradient)" />
  
  <!-- Circuit board design elements -->
  <path d="M8 12L8 20" stroke="#a5f3fc" stroke-width="0.75" stroke-linecap="round" />
  <path d="M8 20L14 23" stroke="#a5f3fc" stroke-width="0.75" stroke-linecap="round" />
  <path d="M24 12L24 20" stroke="#a5f3fc" stroke-width="0.75" stroke-linecap="round" />
  <path d="M24 20L18 23" stroke="#a5f3fc" stroke-width="0.75" stroke-linecap="round" />
  <path d="M8 12L14 9" stroke="#a5f3fc" stroke-width="0.75" stroke-linecap="round" />
  <path d="M24 12L18 9" stroke="#a5f3fc" stroke-width="0.75" stroke-linecap="round" />
  <circle cx="8" cy="12" r="1.5" fill="#a5f3fc" />
  <circle cx="8" cy="20" r="1.5" fill="#a5f3fc" />
  <circle cx="24" cy="12" r="1.5" fill="#a5f3fc" />
  <circle cx="24" cy="20" r="1.5" fill="#a5f3fc" />
  
  <!-- Stylized B with tech elements -->
  <path d="M12 9H17C18.6569 9 20 10.3431 20 12C20 13.6569 18.6569 15 17 15H12V9Z" fill="white" fill-opacity="0.2"/>
  <path d="M12 15H18C19.6569 15 21 16.3431 21 18C21 19.6569 19.6569 21 18 21H12V15Z" fill="white" fill-opacity="0.2"/>
  <path d="M12 9H17C18.6569 9 20 10.3431 20 12C20 13.6569 18.6569 15 17 15H12M12 15H18C19.6569 15 21 16.3431 21 18C21 19.6569 19.6569 21 18 21H12M12 15V21M12 15V9" stroke="white" stroke-width="2" stroke-linecap="round" stroke-linejoin="round" filter="url(#glow)"/>
  
  <!-- Code symbols -->
  <path d="M14 24L16 26L18 24" stroke="white" stroke-width="1.5" stroke-linecap="round" stroke-linejoin="round" />
</svg>